:FULLY-SPECIFIED
:FORCE-ALL-JOINTS-BE-3DOF
:DEGREES
951
root 1.08828 15.2569 32.789 7.24642 -5.12021 5.15596
lfemur 7.62066 -1.57398 4.09422
ltibia -0.661178 0 0
lfoot -30.9442 -15.3274 -0.153194
ltoes -34.5674 0 0
rfemur -31.391 -14.4773 -8.62407
rtibia 45.8576 -0 0
rfoot -21.5062 5.05612 0.480848
rtoes -49.8163 0 0
lowerback -2.9806 -0.241057 0.578971
upperback -1.67671 -0.34765 -7.27893
thorax -0.135706 -0.204739 -7.94114
lowerneck -6.74278 0.956639 4.43158
upperneck 1.26368 0.803135 3.17916
head 1.50636 0.503557 0.281599
lclavicle -1.38515e-14 4.64769e-14 6.31041e-32
lhumerus -59.8081 -44.6183 113.123
lradius 55.0768 -0 0
lwrist 26.4384 0 0
lhand 41.2257 25.2118 -0.0623296
lfingers 7.12502 -0 0
lthumb 63.4389 35.0674 -0.00381254
rclavicle -1.38515e-14 4.64769e-14 6.31041e-32
rhumerus 3.60241 -39.6213 2.11789
rradius 22.6738 -0 0
rwrist -14.2896 0 0
rhand -42.3453 -53.0942 -1.7708
rfingers 7.12502 -0 0
rthumb -15.1606 -83.0847 -1.85626
952
root 1.0738 15.2466 32.7852 7.29268 -5.42888 5.16672
lfemur 7.9688 -1.87849 4.25812
ltibia -1.23632 0 0
lfoot -31.1061 -15.4241 -0.17469
ltoes -35.078 0 0
rfemur -31.4736 -14.5312 -8.66204
rtibia 45.5748 -0 0
rfoot -21.8344 5.36942 0.551851
rtoes -50.6888 0 0
lowerback -3.03129 -0.218735 0.627478
upperback -1.6833 -0.32037 -7.31063
thorax -0.114618 -0.18971 -8.00304
lowerneck -6.73321 1.04881 4.53521
upperneck 1.21961 0.919949 3.15773
head 1.48716 0.561333 0.262475
lclavicle -1.39016e-14 4.55385e-14 1.12948e-31
lhumerus -59.8841 -44.7053 113.206
lradius 55.0074 -0 0
lwrist 26.57 0 0
lhand 41.2739 25.2949 -0.0708638
lfingers 7.12502 -0 0
lthumb 63.4828 35.1232 -0.00494429
rclavicle -1.39016e-14 4.55385e-14 1.12948e-31
rhumerus 3.54739 -40.2195 3.23449
rradius 21.7163 -0 0
rwrist -14.2902 0 0
rhand -42.7267 -53.4285 -2.01311
rfingers 7.12502 -0 0
rthumb -15.5178 -83.4686 -2.1108
953
root 1.06111 15.2369 32.7802 7.33529 -5.73041 5.17558
lfemur 8.31035 -2.17279 4.41832
ltibia -1.79843 0 0
lfoot -31.2634 -15.5136 -0.195729
ltoes -35.5769 0 0
rfemur -31.5567 -14.5856 -8.6958
rtibia 45.305 -0 0
rfoot -22.1569 5.67565 0.622422
rtoes -51.5318 0 0
lowerback -3.07888 -0.197093 0.675139
upperback -1.6884 -0.293954 -7.33972
thorax -0.0936955 -0.175103 -8.06166
lowerneck -6.72357 1.13929 4.63872
upperneck 1.17614 1.03448 3.13687
head 1.46828 0.617981 0.243448
lclavicle -1.39327e-14 4.45269e-14 1.72499e-31
lhumerus -59.9568 -44.791 113.29
lradius 54.9394 -0 0
lwrist 26.6969 0 0
lhand 41.3155 25.3752 -0.0791537
lfingers 7.12502 -0 0
lthumb 63.521 35.1821 -0.00621304
rclavicle -1.39327e-14 4.45269e-14 1.72499e-31
rhumerus 3.47951 -40.7832 4.33437
rradius 20.7864 -0 0
rwrist -14.2866 0 0
rhand -43.0835 -53.7425 -2.24872
rfingers 7.12502 -0 0
rthumb -15.8512 -83.8312 -2.35846
954
root 1.05015 15.2277 32.7739 7.37404 -6.02364 5.1825
lfemur 8.64412 -2.45559 4.57439
ltibia -2.34536 0 0
lfoot -31.4155 -15.5954 -0.216179
ltoes -36.0622 0 0
rfemur -31.64 -14.6402 -8.72516
rtibia 45.0494 -0 0
rfoot -22.4725 5.97367 0.692161
rtoes -52.3416 0 0
lowerback -3.12313 -0.176226 0.721781
upperback -1.69195 -0.26851 -7.36604
thorax -0.0730076 -0.16098 -8.11671
lowerneck -6.7139 1.22773 4.74179
upperneck 1.13344 1.14629 3.11667
head 1.44981 0.67329 0.224585
lclavicle -1.39441e-14 4.34432e-14 2.41357e-31
lhumerus -60.0257 -44.8751 113.374
lradius 54.8731 -0 0
lwrist 26.8188 0 0
lhand 41.3502 25.4524 -0.0871469
lfingers 7.12502 -0 0
lthumb 63.5534 35.2442 -0.00761154
rclavicle -1.39441e-14 4.34432e-14 2.41357e-31
rhumerus 3.40068 -41.3096 5.41233
rradius 19.888 -0 0
rwrist -14.2785 0 0
rhand -43.4143 -54.0351 -2.47623
rfingers 7.12502 -0 0
rthumb -16.1596 -84.171 -2.59776
955
root 1.04083 15.2191 32.7666 7.40869 -6.30739 5.18744
lfemur 8.96894 -2.72557 4.72596
ltibia -2.87494 0 0
lfoot -31.5617 -15.6691 -0.235911
ltoes -36.5319 0 0
rfemur -31.7232 -14.6949 -8.74987
rtibia 44.8093 -0 0
rfoot -22.7801 6.26234 0.760648
rtoes -53.1149 0 0
lowerback -3.16382 -0.156227 0.767231
upperback -1.69389 -0.244145 -7.38941
thorax -0.0526233 -0.147401 -8.16791
lowerneck -6.70424 1.3138 4.84407
upperneck 1.09166 1.25497 3.09722
head 1.43182 0.727048 0.205951
lclavicle -1.39353e-14 4.22887e-14 3.19025e-31
lhumerus -60.0904 -44.9575 113.458
lradius 54.8087 -0 0
lwrist 26.935 0 0
lhand 41.3777 25.5261 -0.0947908
lfingers 7.12502 -0 0
lthumb 63.5796 35.3092 -0.00913085
rclavicle -1.39353e-14 4.22887e-14 3.19025e-31
rhumerus 3.3131 -41.7958 6.46292
rradius 19.0248 -0 0
rwrist -14.2661 0 0
rhand -43.7173 -54.3049 -2.69423
rfingers 7.12502 -0 0
rthumb -16.4415 -84.4866 -2.82724
